
nColumns=19
nRows=43
DataType=double
version=3
OpenSimVersion=4.4-2022-10-11-798caa840
endheader
time	ground_force_calcn_r_vx	ground_force_calcn_r_vy	ground_force_calcn_r_vz	ground_force_calcn_r_px	ground_force_calcn_r_py	ground_force_calcn_r_pz	ground_force_calcn_r_mx	ground_force_calcn_r_my	ground_force_calcn_r_mz	ground_force_calcn_l_vx	ground_force_calcn_l_vy	ground_force_calcn_l_vz	ground_force_calcn_l_px	ground_force_calcn_l_py	ground_force_calcn_l_pz	ground_force_calcn_l_mx	ground_force_calcn_l_my	ground_force_calcn_l_mz
1.28	-88.8301	149.529	-13.2715	-0.141983	0	-0.422667	-0.238793	0.401965	-0.0356765	0	0	0	0	0	0	0	0	0
1.29	-357.664	601.633	-61.4839	-0.155324	0	-0.431284	-2.27688	3.82999	-0.391406	-33.5402	57.0614	5.87153	-0.0850687	0	-0.776698	0.198441	-0.337604	-0.034739
1.3	-382.908	881.9930000000001	-108.59	-0.165112	0	-0.433382	-3.86652	8.906169999999999	-1.09652	-165.224	318.252	30.1755	-0.130432	0	-0.7801090000000001	0.790012	-1.52171	-0.144283
1.31	-237.617	1134.76	-129.925	-0.189624	0	-0.435757	-2.47781	11.8329	-1.35482	-196.762	522.112	54.29	-0.147979	0	-0.777098	0.971436	-2.57773	-0.268036
1.32	-242.885	1720.53	-140.12	-0.231592	0	-0.44639	-0.764974	5.41886	-0.441313	-100.114	646.712	47.2281	-0.163411	0	-0.771	0.221626	-1.43165	-0.10455
1.33	-216.697	2206.98	-36.5479	-0.2582	0	-0.45863	0.520207	-5.29814	0.0877378	-145.872	760.014	37.5456	-0.167264	0	-0.765069	-0.546034	2.84492	0.140542
1.34	-312.88	1833.71	-10.5681	-0.250857	0	-0.461478	1.44678	-8.479200000000001	0.0488676	-215.589	760.9880000000001	36.1482	-0.166742	0	-0.760524	-1.64134	5.79361	0.275206
1.35	-420.814	1302.22	-83.5226	-0.222663	0	-0.457308	0.845666	-2.61693	0.167847	-228.431	677.821	32.9193	-0.164381	0	-0.7559709999999999	-1.98774	5.8982	0.286455
1.36	-395.764	1103.04	-96.2492	-0.202706	0	-0.457264	-0.690401	1.92422	-0.167904	-212.047	610.1	40.6859	-0.163497	0	-0.751711	-1.45108	4.17504	0.278422
1.37	-332.072	1134.19	-73.03879999999999	-0.20174	0	-0.460368	-0.449037	1.53368	-0.09876500000000001	-186.376	622.931	58.5064	-0.168423	0	-0.748177	-0.785869	2.62663	0.246696
1.38	-309.262	1171.23	-52.4692	-0.200567	0	-0.462794	0.19211	-0.727557	0.0325933	-146.508	679.986	60.125	-0.175904	0	-0.744424	-0.6767069999999999	3.14079	0.277712
1.39	-291.259	1168.26	-36.5472	-0.198014	0	-0.464752	0.627447	-2.51672	0.0787318	-111.767	710.061	45.1184	-0.178538	0	-0.740646	-0.819837	5.20847	0.330954
1.4	-251.281	1159.05	-32.5363	-0.198512	0	-0.466261	0.639375	-2.94915	0.0827874	-101.546	687.174	34.77	-0.173137	0	-0.73872	-0.984416	6.66168	0.337072
1.41	-209.023	1125.99	-35.1741	-0.199098	0	-0.466918	0.499956	-2.69323	0.0841321	-106.447	637.557	37.9304	-0.163234	0	-0.738999	-1.05784	6.33587	0.376943
1.42	-186.366	1057.02	-33.3431	-0.196412	0	-0.466964	0.464907	-2.63684	0.0831775	-106.489	596.345	48.8049	-0.154835	0	-0.74026	-0.861032	4.82183	0.394619
1.43	-177.944	982.492	-26.5285	-0.192007	0	-0.466888	0.552771	-3.05204	0.0824088	-94.6268	573.717	58.9551	-0.149508	0	-0.741394	-0.5379699999999999	3.26168	0.33517
1.44	-165.182	920.072	-22.0512	-0.187803	0	-0.466547	0.638802	-3.55815	0.0852774	-79.3176	566.4690000000001	64.81229999999999	-0.145552	0	-0.742522	-0.313683	2.24026	0.256318
1.45	-149.765	876.624	-23.3836	-0.184578	0	-0.465911	0.652371	-3.81854	0.101858	-69.5262	566.809	68.5277	-0.141504	0	-0.743775	-0.202055	1.64724	0.199153
1.46	-135.686	848.91	-28.2113	-0.182923	0	-0.465229	0.606694	-3.79574	0.126142	-64.6786	565.917	71.215	-0.136982	0	-0.7448669999999999	-0.139775	1.22299	0.153901
1.47	-120.667	826.682	-32.3506	-0.18254	0	-0.464716	0.547771	-3.75275	0.146856	-61.7433	557.875	73.1887	-0.132433	0	-0.7457549999999999	-0.0937019	0.846634	0.111072
1.48	-105.834	807.102	-33.0366	-0.183078	0	-0.464416	0.527901	-4.02584	0.164787	-59.1531	540.271	73.51990000000001	-0.128003	0	-0.746416	-0.0532924	0.486743	0.0662358
1.49	-92.27030000000001	787.047	-30.7323	-0.183449	0	-0.464279	0.52916	-4.51363	0.176246	-55.7758	514.6609999999999	71.2564	-0.123717	0	-0.74695	-0.027707	0.255661	0.0353971
1.5	-81.4627	769.502	-28.1432	-0.182705	0	-0.463928	0.533003	-5.03478	0.184138	-51.6002	483.771	67.3151	-0.119456	0	-0.747357	-0.0103658	0.0971837	0.0135228
1.51	-75.1183	749.314	-27.0007	-0.180119	0	-0.463295	0.528623	-5.27307	0.19001	-48.643	451.508	63.1951	-0.115721	0	-0.747677	0.00955247	-0.08866690000000001	-0.0124102
1.52	-72.0468	722.3049999999999	-26.5289	-0.175911	0	-0.462616	0.519964	-5.2129	0.19146	-47.2087	420.229	59.6126	-0.112422	0	-0.748081	0.0351688	-0.313055	-0.0444092
1.53	-71.01990000000001	697.708	-25.1522	-0.171699	0	-0.46199	0.521097	-5.11932	0.18455	-45.92	389.386	56.586	-0.109316	0	-0.7485579999999999	0.0714331	-0.605728	-0.0880251
1.54	-69.8039	682.468	-21.8983	-0.169197	0	-0.461804	0.528912	-5.17113	0.165926	-44.5211	358.829	53.5778	-0.106744	0	-0.748868	0.10769	-0.867955	-0.129597
1.55	-65.68300000000001	675.63	-18.3282	-0.168645	0	-0.461909	0.511108	-5.25736	0.14262	-43.4056	329.069	49.7025	-0.104737	0	-0.748508	0.125029	-0.947875	-0.143167
1.56	-60.1186	670.3819999999999	-17.1931	-0.168707	0	-0.461911	0.449008	-5.00689	0.12841	-42.2549	299.828	44.1585	-0.103336	0	-0.747723	0.111649	-0.79223	-0.116679
1.57	-55.9676	662.777	-18.5857	-0.168534	0	-0.461636	0.368982	-4.36954	0.122531	-41.0738	270.974	36.9407	-0.102558	0	-0.746798	0.0538114	-0.355007	-0.0483966
1.58	-53.2381	652.643	-19.8468	-0.168375	0	-0.461352	0.304319	-3.73063	0.113448	-39.9212	244.005	28.7364	-0.101908	0	-0.745986	-0.0327058	0.199903	0.0235425
1.59	-51.8866	640.645	-19.8915	-0.168504	0	-0.461031	0.271129	-3.34764	0.103941	-38.6332	219.209	20.7642	-0.101475	0	-0.745089	-0.127405	0.722911	0.06847640000000001
1.6	-51.6313	629.381	-19.4058	-0.169615	0	-0.460572	0.268284	-3.27035	0.100836	-37.1238	195.301	14.0121	-0.101643	0	-0.7438940000000001	-0.224801	1.18263	0.0848493
1.61	-49.2578	621.8099999999999	-18.4981	-0.172928	0	-0.460228	0.266445	-3.36349	0.10006	-35.3005	172.552	8.64123	-0.102168	0	-0.7427550000000001	-0.316742	1.54827	0.0775356
1.62	-43.0702	617.376	-17.0629	-0.178532	0	-0.460299	0.231632	-3.32026	0.0917647	-33.0413	152.714	4.77823	-0.104046	0	-0.74188	-0.385688	1.78261	0.0557759
1.63	-34.415	616.015	-16.8836	-0.185633	0	-0.460501	0.164386	-2.94245	0.0806462	-29.8717	138.46	2.0939	-0.108906	0	-0.74058	-0.421859	1.95537	0.0295708
1.64	-22.8478	617.893	-18.7944	-0.192962	0	-0.460397	0.08581	-2.32063	0.0705867	-25.2655	131.097	0.208019	-0.11713	0	-0.738413	-0.398845	2.06952	0.00328383
1.65	-10.5577	623.999	-22.4878	-0.198833	0	-0.459885	0.0284353	-1.68064	0.060567	-19.41	129.652	-0.601642	-0.127471	0	-0.736672	-0.310587	2.07462	-0.009627119999999999
1.66	-3.63694	628.759	-25.9927	-0.201868	0	-0.459215	0.00746334	-1.29027	0.0533395	-13.0472	131.943	-0.345699	-0.139005	0	-0.735279	-0.194295	1.96485	-0.00514804
1.67	-2.46415	626.987	-26.6732	-0.202074	0	-0.45865	0.00511134	-1.30055	0.0553279	-6.72396	135.917	0.39183	-0.149885	0	-0.73409	-0.0916768	1.85314	0.00534235
1.68	-4.39265	621.777	-25.2322	-0.200252	0	-0.458102	0.0106761	-1.51119	0.0613254	-1.70717	137.525	1.2929	-0.158216	0	-0.733216	-0.0214439	1.72747	0.0162402
1.69	-7.65811	616.447	-24.4596	-0.197572	0	-0.457619	0.0197191	-1.58731	0.0629816	0.499383	133.535	1.60129	-0.162539	0	-0.731457	0.00619886	1.65757	0.0198768
1.7	-8.80702	614.2619999999999	-25.7026	-0.195042	0	-0.457061	0.0186012	-1.29738	0.0542862	-0.386536	124.812	0.802553	-0.16305	0	-0.729691	-0.00551229	1.77992	0.011445
